<mxfile host="app.diagrams.net" modified="2023-10-12T09:02:33.463Z" agent="Mozilla/5.0 (Macintosh; Intel Mac OS X 10_15_7) AppleWebKit/537.36 (KHTML, like Gecko) Chrome/116.0.0.0 Safari/537.36" etag="oxBMrvSQr6u7NRZl3DWL" version="21.6.6" type="github">
  <diagram name="第 1 页" id="Y3rS6jlF4DCQzPHH1YYs">
    <mxGraphModel dx="1275" dy="759" grid="1" gridSize="10" guides="1" tooltips="1" connect="1" arrows="1" fold="1" page="1" pageScale="1" pageWidth="827" pageHeight="1169" math="0" shadow="0">
      <root>
        <mxCell id="0" />
        <mxCell id="1" parent="0" />
        <mxCell id="S99MwajducbPO6SArRKW-9" value="agg score" style="rounded=1;absoluteArcSize=1;arcSize=14;whiteSpace=wrap;strokeWidth=2;" vertex="1" parent="1">
          <mxGeometry x="348" y="615" width="82" height="34" as="geometry" />
        </mxCell>
        <mxCell id="S99MwajducbPO6SArRKW-11" value="lre score" style="rounded=1;absoluteArcSize=1;arcSize=14;whiteSpace=wrap;strokeWidth=2;" vertex="1" parent="1">
          <mxGeometry x="414" y="531" width="77" height="34" as="geometry" />
        </mxCell>
        <mxCell id="S99MwajducbPO6SArRKW-12" value="参数特征" style="rounded=1;absoluteArcSize=1;arcSize=14;whiteSpace=wrap;strokeWidth=2;" vertex="1" parent="1">
          <mxGeometry x="348" y="404" width="79" height="34" as="geometry" />
        </mxCell>
        <mxCell id="S99MwajducbPO6SArRKW-16" value="" style="curved=1;startArrow=none;endArrow=block;exitX=0.5022035256410257;exitY=0.991477741914637;entryX=-0.005025724085365854;entryY=0.04335010417536429;rounded=0;" edge="1" parent="1" target="S99MwajducbPO6SArRKW-9">
          <mxGeometry relative="1" as="geometry">
            <Array as="points">
              <mxPoint x="274" y="590" />
            </Array>
            <mxPoint x="274.17485532440423" y="565.0000000000002" as="sourcePoint" />
          </mxGeometry>
        </mxCell>
        <mxCell id="S99MwajducbPO6SArRKW-17" value="" style="curved=1;startArrow=none;endArrow=block;exitX=0.49666238132911394;exitY=0.991477741914637;entryX=0.2225820193134075;entryY=0.006183624267578125;rounded=0;" edge="1" parent="1" source="S99MwajducbPO6SArRKW-12" target="S99MwajducbPO6SArRKW-11">
          <mxGeometry relative="1" as="geometry">
            <Array as="points">
              <mxPoint x="387" y="497" />
            </Array>
          </mxGeometry>
        </mxCell>
        <mxCell id="S99MwajducbPO6SArRKW-18" value="" style="curved=1;startArrow=none;endArrow=block;exitX=0.5014204545454546;exitY=0.991477741914637;entryX=0.8090079368701623;entryY=-0.008522258085363051;rounded=0;" edge="1" parent="1" source="S99MwajducbPO6SArRKW-11" target="S99MwajducbPO6SArRKW-9">
          <mxGeometry relative="1" as="geometry">
            <Array as="points">
              <mxPoint x="453" y="590" />
            </Array>
          </mxGeometry>
        </mxCell>
        <mxCell id="S99MwajducbPO6SArRKW-30" value="                                                               arkwukong" style="whiteSpace=wrap;strokeWidth=2;verticalAlign=top;" vertex="1" parent="1">
          <mxGeometry x="260" y="379" width="280" height="294" as="geometry" />
        </mxCell>
        <mxCell id="S99MwajducbPO6SArRKW-31" value="agg score" style="rounded=1;absoluteArcSize=1;arcSize=14;whiteSpace=wrap;strokeWidth=2;" vertex="1" parent="1">
          <mxGeometry x="348" y="615" width="82" height="34" as="geometry" />
        </mxCell>
        <mxCell id="S99MwajducbPO6SArRKW-32" value="ctr score" style="rounded=1;absoluteArcSize=1;arcSize=14;whiteSpace=wrap;strokeWidth=2;" vertex="1" parent="1">
          <mxGeometry x="313" y="530" width="78" height="34" as="geometry" />
        </mxCell>
        <mxCell id="S99MwajducbPO6SArRKW-33" value="lre score" style="rounded=1;absoluteArcSize=1;arcSize=14;whiteSpace=wrap;strokeWidth=2;" vertex="1" parent="1">
          <mxGeometry x="414" y="531" width="77" height="34" as="geometry" />
        </mxCell>
        <mxCell id="S99MwajducbPO6SArRKW-34" value="参数特征" style="rounded=1;absoluteArcSize=1;arcSize=14;whiteSpace=wrap;strokeWidth=2;" vertex="1" parent="1">
          <mxGeometry x="348" y="404" width="79" height="34" as="geometry" />
        </mxCell>
        <mxCell id="S99MwajducbPO6SArRKW-35" value="请求" style="ellipse;aspect=fixed;strokeWidth=2;whiteSpace=wrap;" vertex="1" parent="1">
          <mxGeometry x="313" y="250" width="47" height="47" as="geometry" />
        </mxCell>
        <mxCell id="S99MwajducbPO6SArRKW-36" value="" style="curved=1;startArrow=none;endArrow=block;exitX=0.38743248245229206;exitY=0.9938349622361203;entryX=0.38802230627828055;entryY=0.006183624267578125;rounded=0;" edge="1" parent="1" source="S99MwajducbPO6SArRKW-35" target="S99MwajducbPO6SArRKW-32">
          <mxGeometry relative="1" as="geometry">
            <Array as="points">
              <mxPoint x="320" y="490" />
            </Array>
          </mxGeometry>
        </mxCell>
        <mxCell id="S99MwajducbPO6SArRKW-38" value="" style="curved=1;startArrow=none;endArrow=block;exitX=0.5022035256410257;exitY=0.991477741914637;entryX=0.25;entryY=0;rounded=0;entryDx=0;entryDy=0;" edge="1" parent="1" source="S99MwajducbPO6SArRKW-32" target="S99MwajducbPO6SArRKW-31">
          <mxGeometry relative="1" as="geometry">
            <Array as="points" />
          </mxGeometry>
        </mxCell>
        <mxCell id="S99MwajducbPO6SArRKW-39" value="" style="curved=1;startArrow=none;endArrow=block;exitX=0.49666238132911394;exitY=0.991477741914637;entryX=0.2225820193134075;entryY=0.006183624267578125;rounded=0;" edge="1" parent="1" source="S99MwajducbPO6SArRKW-34" target="S99MwajducbPO6SArRKW-33">
          <mxGeometry relative="1" as="geometry">
            <Array as="points">
              <mxPoint x="387" y="497" />
            </Array>
          </mxGeometry>
        </mxCell>
        <mxCell id="S99MwajducbPO6SArRKW-40" value="" style="curved=1;startArrow=none;endArrow=block;exitX=0.5014204545454546;exitY=0.991477741914637;entryX=0.8090079368701623;entryY=-0.008522258085363051;rounded=0;" edge="1" parent="1" source="S99MwajducbPO6SArRKW-33" target="S99MwajducbPO6SArRKW-31">
          <mxGeometry relative="1" as="geometry">
            <Array as="points">
              <mxPoint x="453" y="590" />
            </Array>
          </mxGeometry>
        </mxCell>
        <mxCell id="S99MwajducbPO6SArRKW-45" value="" style="group" vertex="1" connectable="0" parent="1">
          <mxGeometry x="570" y="380" width="281" height="97" as="geometry" />
        </mxCell>
        <mxCell id="S99MwajducbPO6SArRKW-27" value="pangu" style="whiteSpace=wrap;strokeWidth=2;verticalAlign=top;" vertex="1" parent="S99MwajducbPO6SArRKW-45">
          <mxGeometry width="250" height="97" as="geometry" />
        </mxCell>
        <mxCell id="S99MwajducbPO6SArRKW-28" value="LreScorer" style="rounded=1;absoluteArcSize=1;arcSize=14;whiteSpace=wrap;strokeWidth=2;" vertex="1" parent="S99MwajducbPO6SArRKW-45">
          <mxGeometry x="140" y="31" width="83" height="34" as="geometry" />
        </mxCell>
        <mxCell id="S99MwajducbPO6SArRKW-29" value="AGG模型" style="rounded=1;absoluteArcSize=1;arcSize=14;whiteSpace=wrap;strokeWidth=2;" vertex="1" parent="S99MwajducbPO6SArRKW-45">
          <mxGeometry x="35" y="31" width="78" height="34" as="geometry" />
        </mxCell>
        <mxCell id="S99MwajducbPO6SArRKW-46" value="" style="group" vertex="1" connectable="0" parent="1">
          <mxGeometry x="570" y="530" width="249" height="144" as="geometry" />
        </mxCell>
        <mxCell id="S99MwajducbPO6SArRKW-23" value="lre引擎" style="whiteSpace=wrap;strokeWidth=2;verticalAlign=top;" vertex="1" parent="S99MwajducbPO6SArRKW-46">
          <mxGeometry width="249" height="144" as="geometry" />
        </mxCell>
        <mxCell id="S99MwajducbPO6SArRKW-24" value="笔记特征&#xa;（不包括ctr笔记向量）" style="shape=cylinder3;boundedLbl=1;backgroundOutline=1;size=10;strokeWidth=2;whiteSpace=wrap;" vertex="1" parent="S99MwajducbPO6SArRKW-46">
          <mxGeometry x="35" y="25" width="179" height="94" as="geometry" />
        </mxCell>
        <mxCell id="S99MwajducbPO6SArRKW-41" value="getLreScore" style="curved=1;dashed=1;dashPattern=2 3;startArrow=none;endArrow=block;entryX=0.9808132947781387;entryY=0.006183624267578125;rounded=0;exitX=0;exitY=0.5;exitDx=0;exitDy=0;" edge="1" parent="1" source="S99MwajducbPO6SArRKW-28" target="S99MwajducbPO6SArRKW-33">
          <mxGeometry x="-0.0014" relative="1" as="geometry">
            <Array as="points">
              <mxPoint x="570" y="520" />
            </Array>
            <mxPoint x="760" y="500" as="sourcePoint" />
            <mxPoint as="offset" />
          </mxGeometry>
        </mxCell>
        <mxCell id="S99MwajducbPO6SArRKW-42" value="getRankParam" style="curved=1;dashed=1;dashPattern=2 3;startArrow=none;endArrow=block;exitX=0;exitY=0.5;entryX=1;entryY=0.5;rounded=0;exitDx=0;exitDy=0;entryDx=0;entryDy=0;" edge="1" parent="1" source="S99MwajducbPO6SArRKW-29" target="S99MwajducbPO6SArRKW-34">
          <mxGeometry relative="1" as="geometry">
            <Array as="points" />
          </mxGeometry>
        </mxCell>
        <mxCell id="S99MwajducbPO6SArRKW-44" value="" style="curved=1;dashed=1;dashPattern=2 3;startArrow=none;endArrow=block;exitX=0.855;exitY=0;entryX=0.5;entryY=1;rounded=0;entryDx=0;entryDy=0;exitDx=0;exitDy=2.9;exitPerimeter=0;" edge="1" parent="1" source="S99MwajducbPO6SArRKW-24" target="S99MwajducbPO6SArRKW-28">
          <mxGeometry relative="1" as="geometry">
            <Array as="points" />
          </mxGeometry>
        </mxCell>
        <mxCell id="S99MwajducbPO6SArRKW-15" value="" style="curved=1;startArrow=none;endArrow=block;exitX=1;exitY=1;entryX=0.16011583439134355;entryY=0.006183624267578125;rounded=0;exitDx=0;exitDy=0;" edge="1" parent="1" source="S99MwajducbPO6SArRKW-35" target="S99MwajducbPO6SArRKW-12">
          <mxGeometry relative="1" as="geometry">
            <Array as="points">
              <mxPoint x="353" y="370" />
            </Array>
            <mxPoint x="276.41881217781315" y="276.44017739417814" as="sourcePoint" />
          </mxGeometry>
        </mxCell>
        <mxCell id="S99MwajducbPO6SArRKW-47" value="" style="group" vertex="1" connectable="0" parent="1">
          <mxGeometry x="100" y="379" width="149" height="84" as="geometry" />
        </mxCell>
        <mxCell id="S99MwajducbPO6SArRKW-3" value="houyi" style="whiteSpace=wrap;strokeWidth=2;verticalAlign=top;" vertex="1" parent="S99MwajducbPO6SArRKW-47">
          <mxGeometry width="149" height="84" as="geometry" />
        </mxCell>
        <mxCell id="S99MwajducbPO6SArRKW-26" value="粗排模型" style="rounded=1;absoluteArcSize=1;arcSize=14;whiteSpace=wrap;strokeWidth=2;" vertex="1" parent="S99MwajducbPO6SArRKW-47">
          <mxGeometry x="35" y="25" width="79" height="34" as="geometry" />
        </mxCell>
        <mxCell id="S99MwajducbPO6SArRKW-43" value="getScorer" style="curved=1;dashed=1;dashPattern=2 3;startArrow=none;endArrow=block;exitX=0.5;exitY=0.991477741914637;entryX=0;entryY=0.5;rounded=0;entryDx=0;entryDy=0;" edge="1" parent="1" source="S99MwajducbPO6SArRKW-26" target="S99MwajducbPO6SArRKW-32">
          <mxGeometry relative="1" as="geometry">
            <Array as="points">
              <mxPoint x="190" y="460" />
              <mxPoint x="230" y="530" />
            </Array>
          </mxGeometry>
        </mxCell>
      </root>
    </mxGraphModel>
  </diagram>
</mxfile>
